<svg xmlns="http://www.w3.org/2000/svg" width="833.33" height="500" xmlns:xlink="http://www.w3.org/1999/xlink"><defs><linearGradient id="a"><stop stop-color="#fbd55f" offset="0"/><stop stop-color="#cb8e32" offset="1"/></linearGradient><radialGradient id="ao" gradientUnits="userSpaceOnUse" xlink:href="#a" cx="685.79" cy="453.08" r="8.107" gradientTransform="matrix(1 0 0 .99658 1.768 2.964)"/><radialGradient id="an" gradientUnits="userSpaceOnUse" xlink:href="#a" cx="604.74" cy="740" r="2.914" gradientTransform="matrix(1 0 0 1.00265 0 -1.96)"/><radialGradient id="am" gradientUnits="userSpaceOnUse" xlink:href="#a" cx="602" cy="734.39" r="2.724" gradientTransform="matrix(1 0 0 .98882 0 8.212)"/><radialGradient id="al" gradientUnits="userSpaceOnUse" xlink:href="#a" cx="600.03" cy="728.91" r="2.506" gradientTransform="matrix(1 0 0 1.0265 0 -19.31)"/><radialGradient id="ak" gradientUnits="userSpaceOnUse" xlink:href="#a" cx="612.94" cy="737.49" r="3.378" gradientTransform="matrix(1 0 0 1.01562 0 -11.523)"/><radialGradient id="aj" gradientUnits="userSpaceOnUse" xlink:href="#a" cx="609.28" cy="730.85" r="3.122" gradientTransform="matrix(1 0 0 1.01859 0 -13.586)"/><radialGradient id="ai" gradientUnits="userSpaceOnUse" xlink:href="#a" cx="606.69" cy="724.91" r="2.946" gradientTransform="matrix(1 0 0 1.0049 0 -3.546)"/><radialGradient id="ah" gradientUnits="userSpaceOnUse" xlink:href="#a" cx="621.24" cy="734.22" r="3.473" gradientTransform="matrix(1 0 0 1.00532 0 -3.906)"/><radialGradient id="ag" gradientUnits="userSpaceOnUse" xlink:href="#a" cx="617.69" cy="727.85" r="3.256" gradientTransform="matrix(1 0 0 1.0159 0 -11.57)"/><radialGradient id="af" gradientUnits="userSpaceOnUse" xlink:href="#a" cx="614.05" cy="721.3" r="3.053" gradientTransform="matrix(1 0 0 1.00982 0 -7.086)"/><radialGradient id="ae" gradientUnits="userSpaceOnUse" xlink:href="#a" cx="629.94" cy="730.32" r="3.904" gradientTransform="matrix(1 0 0 1.0334 0 -24.397)"/><radialGradient id="ad" gradientUnits="userSpaceOnUse" xlink:href="#a" cx="625.6" cy="723.58" r="3.634" gradientTransform="matrix(1 0 0 1.01891 0 -13.684)"/><radialGradient id="ac" gradientUnits="userSpaceOnUse" xlink:href="#a" cx="621.03" cy="717.31" r="3.417" gradientTransform="matrix(1 0 0 1.01622 0 -11.635)"/><radialGradient id="ab" gradientUnits="userSpaceOnUse" xlink:href="#a" cx="639.59" cy="726.09" r="4.048" gradientTransform="matrix(1 0 0 1.03175 0 -23.056)"/><radialGradient id="aa" gradientUnits="userSpaceOnUse" xlink:href="#a" cx="633.37" cy="718.62" r="3.871" gradientTransform="matrix(1 0 0 1.02113 0 -15.183)"/><radialGradient id="Z" gradientUnits="userSpaceOnUse" xlink:href="#a" cx="628.35" cy="711.82" r="3.517" gradientTransform="matrix(1 0 0 1.02676 0 -19.049)"/><radialGradient id="Y" gradientUnits="userSpaceOnUse" xlink:href="#a" cx="649.42" cy="720.03" r="4.405" gradientTransform="matrix(1 0 0 1.0073 0 -5.25)"/><radialGradient id="X" gradientUnits="userSpaceOnUse" xlink:href="#a" cx="642.62" cy="712.94" r="4.135" gradientTransform="matrix(1 0 0 1.01384 0 -9.865)"/><radialGradient id="W" gradientUnits="userSpaceOnUse" xlink:href="#a" cx="637.01" cy="705.72" r="3.872" gradientTransform="matrix(1 0 0 1.01093 0 -7.714)"/><radialGradient id="V" gradientUnits="userSpaceOnUse" xlink:href="#a" cx="660.59" cy="713.14" r="4.846" gradientTransform="matrix(1 0 0 1.0171 0 -12.2)"/><radialGradient id="U" gradientUnits="userSpaceOnUse" xlink:href="#a" cx="653.02" cy="704.68" r="4.489" gradientTransform="matrix(1 0 0 1.00552 0 -3.892)"/><radialGradient id="T" gradientUnits="userSpaceOnUse" xlink:href="#a" cx="646.03" cy="696.48" r="4.136" gradientTransform="matrix(1 0 0 1.02355 0 -16.403)"/><radialGradient id="S" gradientUnits="userSpaceOnUse" xlink:href="#a" cx="654.58" cy="687.37" r="4.49" gradientTransform="matrix(1 0 0 1.01672 0 -11.49)"/><radialGradient id="R" gradientUnits="userSpaceOnUse" xlink:href="#a" cx="662.2" cy="695.65" r="5.292" gradientTransform="matrix(1 0 0 1.01055 0 -7.342)"/><radialGradient id="Q" gradientUnits="userSpaceOnUse" xlink:href="#a" cx="671.6" cy="705.18" r="6.282" gradientTransform="matrix(1 0 0 1.0059 0 -4.166)"/><radialGradient id="P" gradientUnits="userSpaceOnUse" xlink:href="#a" cx="663.89" cy="678.28" r="4.489" gradientTransform="matrix(1 0 0 1.00862 0 -5.844)"/><radialGradient id="O" gradientUnits="userSpaceOnUse" xlink:href="#a" cx="673.31" cy="686.5" r="5.292" gradientTransform="matrix(1 0 0 1.01694 0 -11.63)"/><radialGradient id="N" gradientUnits="userSpaceOnUse" xlink:href="#a" cx="682.71" cy="696.23" r="6.282" gradientTransform="matrix(1 0 0 1.00802 0 -5.585)"/><radialGradient id="M" gradientUnits="userSpaceOnUse" xlink:href="#a" cx="671.83" cy="668.65" r="4.779" gradientTransform="matrix(1 0 0 1.02442 0 -16.33)"/><radialGradient id="L" gradientUnits="userSpaceOnUse" xlink:href="#a" cx="682.92" cy="676.43" r="5.721" gradientTransform="matrix(1 0 0 1.00582 0 -3.938)"/><radialGradient id="K" gradientUnits="userSpaceOnUse" xlink:href="#a" cx="694.25" cy="686.15" r="6.753" gradientTransform="matrix(1 0 0 1.00986 0 -6.764)"/><radialGradient id="J" gradientUnits="userSpaceOnUse" xlink:href="#a" cx="680.18" cy="655.53" r="5.651" gradientTransform="matrix(1 0 0 1.00534 0 -3.497)"/><radialGradient id="I" gradientUnits="userSpaceOnUse" xlink:href="#a" cx="693.57" cy="664.01" r="6.615" gradientTransform="matrix(1 0 0 1.01302 0 -8.648)"/><radialGradient id="H" gradientUnits="userSpaceOnUse" xlink:href="#a" cx="707.38" cy="674.82" r="7.953" gradientTransform="matrix(1 0 0 .9913 0 5.871)"/><radialGradient id="G" gradientUnits="userSpaceOnUse" xlink:href="#a" cx="686.7" cy="642.53" r="6.091" gradientTransform="matrix(1 0 0 1.0069 0 -4.435)"/><radialGradient id="F" gradientUnits="userSpaceOnUse" xlink:href="#a" cx="702.21" cy="650.42" r="7.301" gradientTransform="matrix(1 0 0 .999 0 .647)"/><radialGradient id="E" gradientUnits="userSpaceOnUse" xlink:href="#a" cx="718.42" cy="660.82" r="8.623" gradientTransform="matrix(1 0 0 1.00252 0 -1.666)"/><radialGradient id="D" gradientUnits="userSpaceOnUse" xlink:href="#a" cx="695.15" cy="628.49" r="6.64" gradientTransform="matrix(1 0 0 .99767 0 1.462)"/><radialGradient id="C" gradientUnits="userSpaceOnUse" xlink:href="#a" cx="712.98" cy="635.08" r="7.792" gradientTransform="matrix(1 0 0 1.00597 0 -3.791)"/><radialGradient id="B" gradientUnits="userSpaceOnUse" xlink:href="#a" cx="731.65" cy="644.12" r="9.333" gradientTransform="matrix(1 0 0 .99834 0 1.067)"/><radialGradient id="A" gradientUnits="userSpaceOnUse" xlink:href="#a" cx="700.55" cy="614.7" r="7.03" gradientTransform="matrix(1 0 0 .99645 0 2.18)"/><radialGradient id="z" gradientUnits="userSpaceOnUse" xlink:href="#a" cx="720.45" cy="618.78" r="8.345" gradientTransform="matrix(1 0 0 1.0069 0 -4.273)"/><radialGradient id="y" gradientUnits="userSpaceOnUse" xlink:href="#a" cx="741.9" cy="625.39" r="9.95" gradientTransform="matrix(1 0 0 .99915 0 .535)"/><radialGradient id="x" gradientUnits="userSpaceOnUse" xlink:href="#a" cx="706.08" cy="597.51" r="8.123" gradientTransform="matrix(1 0 0 .99726 0 1.636)"/><radialGradient id="w" gradientUnits="userSpaceOnUse" xlink:href="#a" cx="729.67" cy="600.54" r="9.95" gradientTransform="matrix(1 0 0 .99915 0 .513)"/><radialGradient id="v" gradientUnits="userSpaceOnUse" xlink:href="#a" cx="751.9" cy="604.02" r="10.462" gradientTransform="matrix(1 0 0 .98919 0 6.531)"/><radialGradient id="u" gradientUnits="userSpaceOnUse" xlink:href="#a" cx="711.71" cy="576.36" r="10.886" gradientTransform="matrix(1 0 0 .99259 0 4.272)"/><radialGradient id="t" gradientUnits="userSpaceOnUse" xlink:href="#a" cx="737.53" cy="577.5" r="10.886" gradientTransform="matrix(1 0 0 .99205 0 4.59)"/><radialGradient id="s" gradientUnits="userSpaceOnUse" xlink:href="#a" cx="761.91" cy="580.39" r="10.886" gradientTransform="matrix(1 0 0 .99259 0 4.303)"/><radialGradient id="r" gradientUnits="userSpaceOnUse" xlink:href="#a" cx="714.26" cy="552.78" r="11.385" gradientTransform="matrix(1 0 0 .989 0 6.08)"/><radialGradient id="q" gradientUnits="userSpaceOnUse" xlink:href="#a" cx="741.28" cy="552.78" r="11.347" gradientTransform="matrix(1 0 0 .99234 0 4.237)"/><radialGradient id="p" gradientUnits="userSpaceOnUse" xlink:href="#a" cx="768.04" cy="552.78" r="11.383" gradientTransform="matrix(1 0 0 .98916 0 5.991)"/><radialGradient id="o" gradientUnits="userSpaceOnUse" xlink:href="#a" cx="716.86" cy="525.29" r="12.039" gradientTransform="matrix(1 0 0 .99305 0 3.648)"/><radialGradient id="n" gradientUnits="userSpaceOnUse" xlink:href="#a" cx="745.39" cy="525.29" r="12.039" gradientTransform="matrix(1 0 0 .99305 0 3.648)"/><radialGradient id="m" gradientUnits="userSpaceOnUse" xlink:href="#a" cx="772.18" cy="526.29" r="12.039" gradientTransform="matrix(1 0 0 .99305 0 3.655)"/><radialGradient id="l" gradientUnits="userSpaceOnUse" xlink:href="#a" cx="714.14" cy="499.67" r="12.039" gradientTransform="matrix(1 0 0 .991 0 4.502)"/><radialGradient id="k" gradientUnits="userSpaceOnUse" xlink:href="#a" cx="742.68" cy="499.67" r="12.039" gradientTransform="matrix(1 0 0 .991 0 4.502)"/><radialGradient id="j" gradientUnits="userSpaceOnUse" xlink:href="#a" cx="771.02" cy="499.67" r="12.039" gradientTransform="matrix(1 0 0 .991 0 4.502)"/><radialGradient id="i" gradientUnits="userSpaceOnUse" xlink:href="#a" cx="703.46" cy="474.25" r="12.039" gradientTransform="matrix(1 0 0 .99305 0 3.294)"/><radialGradient id="h" gradientUnits="userSpaceOnUse" xlink:href="#a" cx="731.81" cy="474.25" r="12.039" gradientTransform="matrix(1 0 0 .99305 0 1.88)"/><radialGradient id="g" gradientUnits="userSpaceOnUse" xlink:href="#a" cx="760.54" cy="474.25" r="12.039" gradientTransform="matrix(1 0 0 .99305 0 3.294)"/><radialGradient id="f" xlink:href="#a" gradientUnits="userSpaceOnUse" cy="814.57" cx="416.38" gradientTransform="matrix(1 0 0 1.0057 0 -4.636)" r="7.422"/><radialGradient id="e" xlink:href="#a" gradientUnits="userSpaceOnUse" cy="837.95" cx="393.34" gradientTransform="matrix(1 0 0 .99109 0 7.468)" r="7.506"/><radialGradient id="d" xlink:href="#a" gradientUnits="userSpaceOnUse" cy="860.97" cx="416.58" gradientTransform="matrix(1 0 0 1.0082 0 -7.063)" r="7.422"/><radialGradient id="c" xlink:href="#a" gradientUnits="userSpaceOnUse" cy="837.58" cx="439.62" gradientTransform="matrix(1 0 0 .98778 0 10.237)" r="7.506"/><radialGradient id="b" xlink:href="#a" gradientUnits="userSpaceOnUse" cy="837.65" cx="416.51" gradientTransform="matrix(1 0 0 .98848 0 9.646)" r="11.146"/></defs><path fill="#002b7f" d="M0 0h833.33v500H0z"/><path fill="#fff" d="M0 83.333h833.33v333.33H0z"/><path fill="#ce1126" d="M0 166.67h833.33v166.67H0z"/><ellipse cx="250" cy="250" rx="62.5" ry="72.917" fill="#fff"/><g transform="translate(196.615 195.396) scale(.12818)"><g stroke-linejoin="round" stroke="#000" stroke-linecap="round"><path d="M105.36 349.34l11-20.25-26-7.25-8 18 23 9.5zm622.24 0l-11-20.25 26-7.25 8 18-23 9.5z" stroke-width="3" fill="#cea849" color="#000"/><path d="M409.48 91.438l-40.094 1.157c-25.601 2.418-35.334 12.29-19.437 30.965-41.272 6.469-81.637 15.908-118.94 35.626-10.486-1.74-22.662 4.134-26.156 14.232-2.912 8.158 4.188 16.828 16.812 13.387-8.35 21.987-106.99 19.428-109.5 56.05 7.472-6.368 15.699-11.766 23.906-6.318l-5.656 17.11c-14.363 4.277-24.455 6.644-30.47 22.363-6.212 15.77-15.13 39.832-21.343 51.671-4.08 5.472-5.063 11.284-5.063 14.17 0 6.814 4.869 16.326 16.125 16.326 11.456 0 17.094-7.175 17.094-14.388-.666-5.02-2.644-10.912-14.75-10.228 20.321-4.871 37.886 1.953 49.687 9.477 16.306 12.038 20.387 35.38 10.875 54.58-9.323 18.654-33.013 29.543-68.344 15.764-28.736-11.292-57.644 3.484-67.156 29.151-43.293 117.15 32.408 212.17 118.22 267.58 89.304 57.703 105.21 73.418 129.09 101.62 24.07 28.155 47.37 60.398 82.312 60.398 5.437 0 10.682-1.56 15.344-4.097 21.995 0 23.424 8.208 52.937 8.727v.03c.512 0 1.004-.026 1.5-.03.492.004.962.03 1.47.03v-.03c29.544-.514 30.965-8.727 52.968-8.727 4.662 2.537 9.876 4.097 15.312 4.097 34.943 0 58.243-32.243 82.312-60.398 23.88-28.205 39.821-43.92 129.12-101.62 85.81-55.415 161.51-150.44 118.22-267.58-9.512-25.668-38.45-40.443-67.187-29.15-35.33 13.778-58.989 2.89-68.312-15.765-9.512-19.2-5.431-42.542 10.875-54.58 11.802-7.524 29.335-14.349 49.656-9.477-12.106-.684-14.053 5.209-14.719 10.228 0 7.213 5.638 14.388 17.094 14.388 11.257 0 16.094-9.512 16.094-16.327 0-2.885-.95-8.697-5.031-14.169-6.212-11.839-15.163-35.903-21.375-51.67-6.014-15.72-16.106-18.087-30.47-22.365l-5.624-17.109c8.207-5.448 16.434-.05 23.906 6.318-2.507-36.622-101.18-34.064-109.53-56.05 12.625 3.442 19.756-5.229 16.844-13.387-3.494-10.098-15.67-15.973-26.156-14.232-37.27-19.72-77.67-29.16-118.94-35.63 15.89-18.68 6.16-28.547-19.44-30.964l-40.094-1.157-7-.219-6.969.219z" stroke-width="3.001" fill="#dca842"/><path d="M365.36 93.093c38.572.12 30.016 46.144-5 48.25-43.149 5.035-96.201 3.62-125 15.5" stroke-width="3" fill="none"/><path d="M136.36 218.09c33.314-9.378 69.202-1.792 91-11.75s26.49-42.896 3-47.25" stroke-width="3" fill="none" color="#000"/><path d="M349.11 123.59c7.68-1.77 15.889-2.044 19.979-5.77 4.09-3.727 5.313-10.405-4.48-11.23" stroke-width="3" fill="none"/><path d="M221.62 187.09c7.161-12.05 4.837-20.454-4.518-14.67" stroke-width="3" fill="none" color="#000"/><path d="M467.6 93.093c-38.572.12-30.016 46.144 5 48.25 43.149 5.035 96.201 3.62 125 15.5" stroke-width="3" fill="none"/><path d="M696.6 218.09c-33.314-9.378-69.202-1.792-91-11.75s-26.49-42.896-3-47.25" stroke-width="3" fill="none" color="#000"/><path d="M483.85 123.59c-7.68-1.77-15.889-2.044-19.979-5.77-4.09-3.727-5.312-10.405 4.48-11.23" stroke-width="3" fill="none"/><path d="M611.33 187.09c-7.161-12.05-4.837-20.454 4.518-14.67" stroke-width="3" fill="none" color="#000"/><g stroke-width="3" fill="none"><path d="M219.23 742.45c61.736 43.665 70.667 100.43 134.54 103.15m.78 8.9c-37.662 8.11-62.318-12.363-92.023-56.818-15.15-22.4-54.94-53.9-122.89-96.38-106.78-66.66-138.42-182.91-103.67-246.66 8.543-15.676 30.48-21.857 43.099-18.346 32.811 8.852 87.947 0 88.141-53.159.194-29.917-24.268-64.879-55.912-64.879-19.224 0-29.511 6.38-34.556 13.154"/><path d="M349.89 831.9c0-2.918 2.52-5.984 6.212-5.984 3.688 0 6.988 3.264 6.988 7.32 0 8.9-5.05 13.697-15.725 11.57-8.737-1.73-12.619-11.176-8.93-20.67 3.687-9.643 16.111-15.626 29.505-9.643 13.4 6.182 11.843 26.654 7.187 38.275-2.719 6.725-8.156 12.363-14.756 16.022M613.72 742.45c-61.73 43.66-70.66 100.43-134.73 103.15"/><path d="M478.41 854.5c37.662 8.11 62.318-12.363 92.018-56.818 14.949-22.401 54.942-53.901 122.89-96.379 106.77-66.659 138.42-182.92 103.67-246.66-8.538-15.676-30.475-21.857-43.094-18.346-32.811 8.852-87.947 0-88.141-53.159-.194-29.917 24.268-64.879 55.911-64.879 19.219 0 29.511 6.38 34.556 13.154"/><path d="M495.88 830.52c0-26.456-44.843-34.764-79.205-34.764-34.168 0-79.205 8.308-79.205 34.764"/><path d="M483.07 831.9c0-2.918-2.52-5.984-6.212-5.984-3.688 0-6.988 3.264-6.988 7.32 0 8.9 5.05 13.697 15.725 11.57 8.737-1.73 12.619-11.176 8.93-20.67-3.687-9.643-16.111-15.626-29.505-9.643-13.4 6.182-11.843 26.654-7.187 38.275 2.719 6.725 8.156 12.363 14.756 16.022"/><path d="M460.16 857.17c-18.056 0-17.474 19.44-43.681 19.44-26.012 0-25.431-19.44-43.487-19.44"/></g></g><g stroke="#000" stroke-width="3"><path d="M416.48 828.14c-12.812 0-12.812 19.035 0 19.035s13.006-19.035 0-19.035" fill="url(#b)"/><path d="M439.58 831.66c-7.957 0-7.957 11.828 0 11.828 7.962 0 8.156-11.828 0-11.828" fill="url(#c)"/><path d="M422.5 860.99c0-8.002-11.843-8.002-11.843 0 0 7.952 11.843 7.952 11.843 0" fill="url(#d)"/><path d="M393.38 843.89c7.957 0 7.957-11.878 0-11.878-7.962 0-8.156 11.878 0 11.878" fill="url(#e)"/><path d="M410.46 814.57c0 7.952 11.843 7.952 11.843 0s-11.843-7.952-11.843 0" fill="url(#f)"/></g><g id="ap" stroke="#000"><path d="M154.052 272.66c2.176.121 4.391.67 6.438 1.531 3.615 1.523 6.784 4.129 7.906 7.75.007.023.024.04.031.063 31.912 88.55 14.845 126.29-13.5 183.59-40.958 82.506-11.105 205.42 80.375 259.16 44.974 26.295 79.656 35.262 106.22 41.906 13.281 3.322 24.558 6.07 34.094 10.156 9.2 3.94 18.697 11 24.695 19.174-9.19.76-24.19 3.281-31.554 5.445-10.704-13.603-37.624-26.11-65.484-35.588-27.86-9.478-56.925-16.224-72.688-19.344h-.031c-51.284-14.874-99.1-48.249-135.12-90.656-38.135-44.889-57.625-106.35-50.094-167.97 1.687-14.102 7.292-22.719 15.28-27.406 7.99-4.687 18.097-5.486 28.813-4.78 19.477 1.123 38.56-4.195 56-14.939 22.488-13.845 31.704-38.325 31.344-64.906-.36-26.58-10.401-55.133-26.312-76.406-5.686-7.658-7.962-13.4-7.844-17.844.119-4.444 3.002-7.378 6.531-8.406a13.699 13.699 0 0 1 2.75-.5 16.09 16.09 0 0 1 2.156-.031z" stroke-width="3" fill="#825123"/><path fill="url(#g)" d="M760.57 462.8c15.337 0 15.337 22.911 0 22.911s-15.531-22.911 0-22.911" transform="matrix(-1 0 0 1 833.412 0)"/><path fill="url(#h)" d="M731.84 461.38c15.337 0 15.337 22.911 0 22.911s-15.531-22.911 0-22.911" transform="matrix(-1 0 0 1 833.412 0)"/><path fill="url(#i)" d="M703.5 462.8c15.337 0 15.337 22.911 0 22.911s-15.531-22.911 0-22.911" transform="matrix(-1 0 0 1 833.412 0)"/><path fill="url(#j)" d="M771.06 488.24c15.337 0 15.337 22.862 0 22.862s-15.531-22.862 0-22.862" transform="matrix(-1 0 0 1 833.412 0)"/><path fill="url(#k)" d="M742.71 488.24c15.337 0 15.337 22.862 0 22.862s-15.531-22.862 0-22.862" transform="matrix(-1 0 0 1 833.412 0)"/><path fill="url(#l)" d="M714.17 488.24c15.337 0 15.337 22.862 0 22.862s-15.531-22.862 0-22.862" transform="matrix(-1 0 0 1 833.412 0)"/><path fill="url(#m)" d="M772.22 514.84c15.337 0 15.337 22.911 0 22.911s-15.531-22.911 0-22.911" transform="matrix(-1 0 0 1 833.412 0)"/><path fill="url(#n)" d="M745.43 513.84c15.337 0 15.337 22.911 0 22.911s-15.531-22.911 0-22.911" transform="matrix(-1 0 0 1 833.412 0)"/><path fill="url(#o)" d="M716.89 513.84c15.337 0 15.337 22.911 0 22.911s-15.531-22.911 0-22.911" transform="matrix(-1 0 0 1 833.412 0)"/><path fill="url(#p)" d="M768.14 542.02c14.368 0 14.368 21.52 0 21.52-14.557 0-14.751-21.52 0-21.52" transform="matrix(-1 0 0 1 833.412 0)"/><path fill="url(#q)" d="M741.35 542.02c14.363 0 14.363 21.52 0 21.52-14.562 0-14.562-21.52 0-21.52" transform="matrix(-1 0 0 1 833.412 0)"/><path fill="url(#r)" d="M714.37 542.02c14.368 0 14.368 21.52 0 21.52-14.562 0-14.756-21.52 0-21.52" transform="matrix(-1 0 0 1 833.412 0)"/><path fill="url(#s)" d="M762.43 570.11c13.782.547 12.812 21.172-.97 20.575-13.786-.596-13.01-21.371.97-20.575" transform="matrix(-1 0 0 1 833.412 0)"/><path fill="url(#t)" d="M738.05 567.22c13.782.596 12.812 21.172-.974 20.575-13.782-.547-13.006-21.122.974-20.575" transform="matrix(-1 0 0 1 833.412 0)"/><path fill="url(#u)" d="M712.23 566.07c13.787.596 12.817 21.172-.97 20.575-13.781-.596-13.005-21.371.97-20.575" transform="matrix(-1 0 0 1 833.412 0)"/><path fill="url(#v)" d="M752.61 594.2c13.205.994 11.843 20.575-1.357 19.631-13.2-.795-12.037-20.575 1.357-19.631" transform="matrix(-1 0 0 1 833.412 0)"/><path fill="url(#w)" d="M730.29 591.12c12.619.745 11.262 19.581-1.163 18.836-12.619-.795-11.456-19.631 1.163-18.836" transform="matrix(-1 0 0 1 833.412 0)"/><path fill="url(#x)" d="M706.61 589.93c10.094.596 9.12 15.953-.974 15.158-10.094-.596-9.319-15.705.974-15.158" transform="matrix(-1 0 0 1 833.412 0)"/><path fill="url(#y)" d="M742.52 615.97c12.619.745 11.262 19.581-1.163 18.836-12.619-.795-11.456-19.631 1.163-18.836" transform="matrix(-1 0 0 1 833.412 0)"/><path fill="url(#z)" d="M720.97 610.9c10.487.795 9.319 16.5-.97 15.755-10.485-.795-9.512-16.5.97-15.755" transform="matrix(-1 0 0 1 833.412 0)"/><path fill="url(#A)" d="M700.97 608.22c8.737.348 7.763 13.568-.775 12.971-8.737-.398-7.962-13.568.775-12.971" transform="matrix(-1 0 0 1 833.412 0)"/><path fill="url(#B)" d="M733.59 635.55c11.456 2.535 7.574 19.83-3.881 17.096-11.456-2.535-7.57-19.581 3.881-17.096" transform="matrix(-1 0 0 1 833.412 0)"/><path fill="url(#C)" d="M714.56 628c9.512 2.137 6.212 16.5-3.106 14.164-9.513-2.137-6.406-16.5 3.106-14.164" transform="matrix(-1 0 0 1 833.412 0)"/><path fill="url(#D)" d="M696.51 622.58c7.962 1.74 5.243 13.767-2.719 11.828-7.956-1.74-5.238-13.767 2.719-11.828" transform="matrix(-1 0 0 1 833.412 0)"/><path fill="url(#E)" d="M721.16 653.24c10.099 3.479 4.662 18.836-5.437 15.158-10.094-3.529-4.85-18.836 5.437-15.158" transform="matrix(-1 0 0 1 833.412 0)"/><path fill="url(#F)" d="M704.47 644.1c8.543 2.932 3.881 15.755-4.468 12.624-8.538-2.883-4.075-15.705 4.468-12.624" transform="matrix(-1 0 0 1 833.412 0)"/><path fill="url(#G)" d="M688.55 637.34c6.988 2.286 3.3 12.971-3.688 10.437-6.992-2.485-3.3-13.17 3.688-10.437" transform="matrix(-1 0 0 1 833.412 0)"/><path fill="url(#H)" d="M710.49 668.2c8.93 4.075 2.719 17.444-6.212 13.17-8.931-3.877-2.719-17.246 6.212-13.17" transform="matrix(-1 0 0 1 833.412 0)"/><path fill="url(#I)" d="M696.12 658.46c7.38 3.33 2.137 14.562-5.045 11.083-7.38-3.28-2.33-14.562 5.045-11.083" transform="matrix(-1 0 0 1 833.412 0)"/><path fill="url(#J)" d="M682.34 650.91c6.212 2.932 1.744 12.027-4.274 9.294-6.212-2.883-1.938-12.226 4.274-9.294" transform="matrix(-1 0 0 1 833.412 0)"/><path fill="url(#K)" d="M697.09 680.63c7.38 3.678 1.556 14.91-5.626 11.033-7.38-3.678-1.75-14.91 5.626-11.033" transform="matrix(-1 0 0 1 833.412 0)"/><path fill="url(#L)" d="M685.25 671.88c6.212 3.081 1.357 12.425-4.662 9.095-6.212-3.081-1.357-12.425 4.662-9.095" transform="matrix(-1 0 0 1 833.412 0)"/><path fill="url(#M)" d="M673.79 664.87c5.05 2.733.97 10.288-3.881 7.604-5.05-2.535-1.168-10.486 3.881-7.604" transform="matrix(-1 0 0 1 833.412 0)"/><path fill="url(#N)" d="M685.83 691.46c6.406 4.075 0 13.816-6.212 9.542-6.407-4.075-.194-13.816 6.212-9.542" transform="matrix(-1 0 0 1 833.412 0)"/><path fill="url(#O)" d="M675.93 682.57c5.238 3.479 0 11.431-5.243 7.952-5.243-3.479 0-11.68 5.243-7.952" transform="matrix(-1 0 0 1 833.412 0)"/><path fill="url(#P)" d="M666.03 674.96c4.468 2.932 0 9.542-4.27 6.61-4.462-2.882 0-9.492 4.27-6.61" transform="matrix(-1 0 0 1 833.412 0)"/><path fill="url(#Q)" d="M674.73 700.43c6.406 4.274 0 13.767-6.212 9.492-6.407-4.075-.194-13.767 6.212-9.492" transform="matrix(-1 0 0 1 833.412 0)"/><path fill="url(#R)" d="M664.83 691.66c5.238 3.529 0 11.48-5.243 7.952-5.243-3.479 0-11.431 5.243-7.952" transform="matrix(-1 0 0 1 833.412 0)"/><path fill="url(#S)" d="M656.71 684.11c4.463 2.932 0 9.492-4.274 6.61-4.463-2.932 0-9.741 4.274-6.61" transform="matrix(-1 0 0 1 833.412 0)"/><path fill="url(#T)" d="M647.98 693.4c4.075 2.535 0 8.747-3.886 6.212-4.076-2.683 0-8.896 3.886-6.212" transform="matrix(-1 0 0 1 833.412 0)"/><path fill="url(#U)" d="M655.16 701.4c4.463 2.883 0 9.492-4.27 6.56-4.467-2.882 0-9.492 4.27-6.56" transform="matrix(-1 0 0 1 833.412 0)"/><path fill="url(#V)" d="M662.92 709.55c4.85 3.28 0 10.486-4.662 7.157-4.855-3.082 0-10.487 4.662-7.157" transform="matrix(-1 0 0 1 833.412 0)"/><path fill="url(#W)" d="M638.85 702.94c3.688 2.535 0 7.952-3.688 5.616-3.692-2.535 0-8.15 3.688-5.616" transform="matrix(-1 0 0 1 833.412 0)"/><path fill="url(#X)" d="M644.57 709.92c4.075 2.733 0 8.747-3.881 6.014-4.08-2.684 0-8.698 3.881-6.014" transform="matrix(-1 0 0 1 833.412 0)"/><path fill="url(#Y)" d="M651.55 716.84c4.274 2.684 0 9.294-4.27 6.411-4.273-2.932 0-9.343 4.27-6.411" transform="matrix(-1 0 0 1 833.412 0)"/><path fill="url(#Z)" d="M630 709.28c3.3 2.137 0 7.405-3.3 5.07-3.3-2.138 0-7.356 3.3-5.07" transform="matrix(-1 0 0 1 833.412 0)"/><path fill="url(#aa)" d="M635.21 715.78c3.688 2.535 0 8.15-3.688 5.666-3.687-2.535 0-8.15 3.688-5.666" transform="matrix(-1 0 0 1 833.412 0)"/><path fill="url(#ab)" d="M641.53 723.19c3.881 2.535 0 8.747-3.881 5.815-3.882-2.535 0-8.747 3.881-5.815" transform="matrix(-1 0 0 1 833.412 0)"/><path fill="url(#ac)" d="M622.74 714.97c3.106 2.336-.393 7.008-3.499 4.672-2.912-2.336.393-7.008 3.499-4.672" transform="matrix(-1 0 0 1 833.412 0)"/><path fill="url(#ad)" d="M627.45 721.07c3.3 2.535-.388 7.554-3.688 5.02-3.3-2.485.388-7.555 3.688-5.02" transform="matrix(-1 0 0 1 833.412 0)"/><path fill="url(#ae)" d="M631.97 727.58c3.494 2.733-.388 8.35-4.075 5.467-3.494-2.733.387-8.35 4.075-5.467" transform="matrix(-1 0 0 1 833.412 0)"/><path fill="url(#af)" d="M615.7 719.44c2.525 2.137-.775 6.063-3.3 3.727-2.52-2.335.78-6.013 3.3-3.727" transform="matrix(-1 0 0 1 833.412 0)"/><path fill="url(#ag)" d="M619.58 725.92c2.525 2.286-.97 6.56-3.688 3.877-2.718-2.336.97-6.61 3.688-3.877" transform="matrix(-1 0 0 1 833.412 0)"/><path fill="url(#ah)" d="M623.18 732.05c2.912 2.733-.97 7.008-3.881 4.274-2.913-2.485.969-6.958 3.881-4.274" transform="matrix(-1 0 0 1 833.412 0)"/><path fill="url(#ai)" d="M608.34 723.22c2.33 2.137-.97 5.616-3.3 3.479-2.33-2.336.97-5.815 3.3-3.479" transform="matrix(-1 0 0 1 833.412 0)"/><path fill="url(#aj)" d="M611.02 729c2.525 2.535-.97 6.212-3.494 3.678-2.524-2.336.97-6.213 3.494-3.678" transform="matrix(-1 0 0 1 833.412 0)"/><path fill="url(#ak)" d="M614.9 735.44c2.719 2.733-1.163 6.809-3.881 4.075-2.719-2.534.974-6.808 3.881-4.075" transform="matrix(-1 0 0 1 833.412 0)"/><path fill="url(#al)" d="M601.5 727.58c1.744 1.938-1.168 4.672-2.912 2.733-1.75-1.938.969-4.87 2.912-2.733" transform="matrix(-1 0 0 1 833.412 0)"/><path fill="url(#am)" d="M603.61 732.94c1.943 2.137-1.163 5.02-3.3 2.883-1.744-2.137 1.168-5.02 3.3-2.883" transform="matrix(-1 0 0 1 833.412 0)"/><path fill="url(#an)" d="M606.49 738.49c2.132 2.336-1.362 5.417-3.499 3.131-2.132-2.336 1.362-5.666 3.499-3.131" transform="matrix(-1 0 0 1 833.412 0)"/><path fill="url(#ao)" d="M687.6 446.92c10.094 0 10.094 15.158 0 15.158s-10.288-15.158 0-15.158" transform="matrix(-1 0 0 1 833.412 0)"/></g><use xlink:href="#ap" transform="matrix(-1 0 0 1 832.957 0)" height="500" width="833.333"/></g><path fill="#89c5e3" d="M219.963 250.909c1.444-4.803 2.165-10.976.125-19.01 8.983-5.797 15.304-11.097 29.937-11.097 14.608 0 21.5 4.026 29.937 11.098-2.016 8.033-1.294 14.18.124 19.009h-60.171" stroke="#000" stroke-width=".128"/><path fill="#fcdd09" d="M226.802 239.214l-.67 7.262h-.02l-2.579-7.198 1.242 7.603c-.009.004-.019.007-.028.012l-2.88-3.801 1.73 4.518-2.115-1.474 1.286 2.412c-.011.016-.025.031-.036.048l-1.506-.185.933 1.31a4.981 4.981 0 0 0-.292 1.688c0 .028.008.053.008.08h9.95c0-.027.008-.052.008-.08a4.98 4.98 0 0 0-.292-1.694l1.96-1.88-2.468.861-.06-.092c.38-.466 4.09-5.031 3.938-5.031-.158 0-4.692 3.889-4.851 4.025l-.024-.02 3.56-7.883-4.926 7.074-.048-.02 1.45-7.47-2.595 7.178-.673-7.242z"/><path fill="#0f47af" d="M219.92 250.909c-.796 2.663-1.79 4.93-2.661 6.868-2.265 5.102-2.738 16.97 5.623 25.36 12.418 12.417 21.875 7.416 26.628 14.181h.97c4.753-6.765 14.209-1.764 26.627-14.18 8.362-8.39 7.914-20.259 5.624-25.361-.846-1.918-1.866-4.205-2.663-6.868h-60.171" stroke="#000" stroke-width=".128"/><path d="M238.097 239.487c-.144-.697-1.768-.563-1.65-1.683-1.08-.172-.88-2.103 1.137-1.97.213-.384 2.65-1.261 2.356-.049 1.223-1.065 2.11-.09 1.426.385.472.473.71 1.553-.737 1.458.553.985-.733.948-1.587.673.021.373-.042.669-.528.577-.307.207-.075.475-.032.72l-.385-.111zm22.381.76c.013-.879-1.643-.61-1.58-1.611-.9-.138-.769-2 1.089-1.888-.104-.537 2.501-1.227 2.255-.046.908-.962 1.803-.063 1.254.368.452.453 1 1.231-.594 1.397.643.623-.701.908-1.519.644.02.358-.217.48-.683.393-.294.198.105.614.146.85l-.368-.107zm12.905 3.036c.154-.665-1.366-.606-1.327-1.364-.69-.104-.59-1.513.838-1.429-.08-.407 1.777-1.09 1.653-.099.697-.728 1.465.017 1.043.343.347.343.769.932-.456 1.057.493.472-.54.688-1.168.488.016.271-.07.316-.428.25-.226.15.273.513.304.692l-.459.062z" fill="#fff"/><path d="M-308.88 472.49c2.912-15.158 15.337-29.124 16.699-40.952 1.163-10.685 3.3-15.158 9.512-26.39 6.213-11.282 8.733-16.5 10.094-24.303 1.939-10.089 9.513-12.226 13.006-1.938 3.3 10.288 9.9 36.13 13.394 42.145 3.3 6.013 6.8 14.363 6.213 18.438-.582 4.075 4.468 5.616 7.38 8.548 2.913 2.733 3.3 12.226 11.843 20.377 8.538 8.15 18.051 13.965 26.012 18.04 7.182 16.153 12.037 40.605 10.87 68.536h-533.29c-.195-7.356 0-14.562.387-21.52 47.368-12.226 65.036-43.487 85.03-41.35 10.874-15.158 24.074-31.46 33.199-39.81 10.869-9.89 32.225-49.3 37.662-73.405 5.437-23.856 13.394-36.678 19.412-35.336 6.018 1.392 8.543 2.535 15.725 24.104 9.905 29.67 16.699 33.199 24.268 54.52 6.6 18.488 20.387 51.637 41.548 68.933 13.2-9.89 28.343-20.973 33.194-28.726 4.08-6.809 10.293-17.295 17.668-22.315 3.3-9.89 7.569-27.583 11.068-31.857 3.3-3.877 4.657-7.753 5.044-14.562.194-6.809 5.437-21.172 12.62-33.2 7.186-11.827 16.698-15.704 20.967 0 4.076 15.756 13.588 48.756 22.52 69.33 3.687 8.55 10.486 25.397 25.43 43.09l1.614 1.906c.303-.53.607-.926.911-2.304z" stroke="#000" stroke-width=".999" fill="#509164" transform="matrix(.12842 0 0 .12818 307.865 195.396)"/><path fill="#034418" d="M260.347 263.125c-1.271-1.223-3.29-.95-4.313-1.918-.997-.943-2.593-.3-6.034-2.038a8.934 8.934 0 0 1-1.27-.822c-2.719-2.217-4.488-6.473-5.336-8.836-.948-2.714-1.845-3.16-3.116-6.995-.674-2.039-1.048-2.663-1.496-2.886 1.171 1.274.548 3.262 1.496 5.402.374.848-.25.848-.45.574-.173-.274-.747-.402-1.022-.376.5.427.574 1.497 1.073 2.612.473 1.121-.374 1 .648 2.593.274.446.374 1.115-.025 1.388-.424.249-.723-.77-1.347-.42.175.401.898 1.121 1.372 1.542.474.426.025.65-.35.452-.398-.204-.922-.401-1.196-.624 0 .325.4.694.947 1.19.574.479.2.823-1.122.823.2.3.125 1.044-.473 1.146.822.051 1.446 1.568 2.468 1.67.997.07 1.097.77.125.942-.973.172-2.942-1.395-3.914-2.414-.25.35-.773.497-1.147.3-.025.47.124 1.617.573 2.363-.474-.198-1.097-.822-1.72-1.593-.598-.72-.997.35-.474.994.524.65.873 1.172.025 1.669-.823.471-1.346.3-1.97-.573-.872.726-1.221.77-1.894.65 0 .42-.724 1.42-1.047 2.165-.723 1.44 32.061 4.428 31.14.943"/><path fill="#034418" d="M283.928 263.345c-8.627-.751-13.388-4.083-16.081-7.269-1.92-2.242-2.792-4.427-3.266-5.523-1.147-2.637-2.368-6.867-2.892-8.887-.175-.669-.424-1.07-.723-1.216-.449-.223-.225.547.1.942.349.376.324.727-.125.453-.449-.249-.673.248-.25.866.4.599 1.023 1.3 1.147 1.969.126.65.175 1.216.499 1.541.3.325-.823.402-1.296-.37-.025.498.125 1.218.448 1.141.3-.05.4.223-.025.975-.423.72-.374.968-.224 1.293.224.497.798-1.472 1.147-.35.175.522.474 1.172.748 1.592.274.402.25.65-.15.65s-.748-1-.797-.153c-.025.822.623 1.096 1.296 1.045.648-.026.748.223.648.573-.074.35.2.695.573.625.35-.102.898.223 1.197 1.07.3.847-.199 1.217-.922.618-.723-.618-1.77-1.166-1.87-1.618-.075-.395-.374.178-.05.726.3.548.474.796.873 1.02.398.197-.025 1.018-.698.496-.649-.497-.948-.376-1.147.198-.324.923-1.296.7-.998 1.197.3.497.175 1.293-.273 1.491-.475.197-1.023-.096-.973-.968-.125.172-.598.248-.972.146-.05 1.223-.399 1.644-1.147 1.319-.025.274-.05.745-.424 1.096.823-.121.997.446 1.072.796.05.35.175.3.648.35.449.026 1.023.618.175.472-.848-.121-2.17.172-2.942-.395.798.72 3.067.745 4.014 1.662 6.906 2.842 19.073 3.836 23.884 2.517.024-.574-.05-1.892-.1-2.313"/><path fill="#034418" d="M273.912 243.178c.2.096.4.37.573.797.424 1.318 1.272 4.625 1.721 5.396.424.77.873 1.84.798 2.363-.075.522.573.726.947 1.096.374.35.424 1.567 1.52 2.612 1.098 1.044 2.32 1.796 3.341 2.318.624 1.39 1.098 3.256 1.297 5.447-2.942-.223-6.632-1.095-8.477-1.917.075-.274.075-.618-.025-1.14-.124-.523-.025-.924.524-1.421s.374-1.344.075-1.816c-.3-.446-.274-.72-.025-.994.224-.248.224-.7-.3-1.197-.548-.497-.174-1.02.125-1.465.3-.453.748-1.224.424-2.217-.324-.969-.823.223-1.222-.147-.25-.255-.398-.726-.124-1.121.274-.376.1-1.096-.225-1.644.723-.197-.498-2.312-.698-3.21-.199-.899.225-1.344-.249-1.695"/><path fill="#509164" d="M242.544 251.259c0 .471-.124 1.147-.25 1.37.3.471.699 1.44.649 1.739.399-.37 1.172-.077 1.346.949.175 1.045.35 2.013.25 2.586.349.3 1.097.822 1.221 1.396.125.547.499.471.873.42 1.172-.172 1.072 1.242 2.294 1.045 1.72-.249.648 1.121 2.368 1.07.997-.05 2.369.147 3.067 1.121.772-1.044 1.445-.65 2.144-.376.698.249 1.57.179.797-.37-.797-.572-2.368-.649-3.066-.477-.699.179-1.745.051-2.468-.592-.699-.65-1.92-1.198-2.668-1.223-.748-.026-.922-.07-1.496-.918-.548-.822-1.446-.726-1.895-.77-.423-.026-.748-.574-.25-1.096.724-.771-.298-.873.076-1.345.374-.471.174-1.095-.823-1.172-.997-.076-.623-.395-.474-1.096.35-1.662-1.895-1.388-1.72-2.185m39.168 8.881c.1-1.019-.674-1.44-.848-2.217-.15-.77-1.371-.796-1.695-.567.125.223 0 .618-.15.841-.15.204-.15.325.15.427.324.077.598.147.623.42.025.25.175.026.3-.299.099-.318.971.402 1.072 1.045.074.65.423 1.096.523.325m-4.014-1.071c.15.376.698.899.997.899.3 0 .748.223.823.573.05.3.299.72.623.77.324.052.15.3-.25.275-.423-.026-1.071-.274-1.12-.574.149.625-.051.899-.45.446-.374-.42-.573-1.019-1.072-1.095.374-.07.424-.172.25-.548-.15-.37-.026-1.364.199-.746"/><path d="M-716.69 545.89c6.382-3.131 16.23-1.938 19.904 1.342 1.93-3.678 5.025-6.411 10.828-5.417 4.644-5.07 8.511-7.604 11.22-5.07 2.708-5.02 11.799-6.212 14.894-3.08 3.288-5.07 9.863-7.406 14.309-4.673 5.803-7.604 16.052-10.288 22.241-6.41 5.417-4.076 11.606-3.28 14.314-.597 2.708 2.535 8.511-2.684 10.833 2.137 4.06-.944 11.794-1.143 13.344 3.13.965-2.335 4.446-3.726 6.382-1.937 0-8.946 6.382-15.755 15.28-13.618 4.253-6.412 11.606-9.095 15.087-6.81 3.674-3.677 11.215-1.142 14.502 3.33 7.16-.198 10.64 3.082 14.314 9.493 3.674 6.411 14.314 10.288 21.083 7.405 6.769-2.534 12.958-3.33 15.28-.198 4.06-3.678 8.511-2.734 11.215-.2 4.644 4.076 9.09-3.13 11.8-.397 4.257 4.473 8.124-4.075 15.665.398 7.353 4.473 21.855 11.232 33.075 11.232s20.117-13.767 27.272-4.076c7.155-4.82 17.988-7.156 25.53-3.08 4.45-4.076 14.7-5.418 18.76-1.542 4.06-6.212 11.798-9.94 18.373-7.802 3.674-6.362 18.374-7.356 22.821 1.59 3.679 0 9.477 3.28 9.477 7.356 3.679 0 9.482 2.335 9.482 6.61 4.06-.994 9.085 1.54 9.863 6.41 8.12-.596 14.7 2.734 18.374 9.493 2.708-2.336 1.158-8.35 7.347-9.492 6.19-.994 8.126.944 9.863 3.081 6.769-5.02 16.25-4.423 24.177 2.733 5.803-2.335 11.22-1.341 12.958 1.541 2.516-2.336 6.576-2.882 10.64-2.882.194 13.17-.97 27.533-3.871 42.294h-523.75c-2.709-14.363-3.867-28.726-3.674-41.946" stroke="#000" stroke-width=".999" fill="#078930" transform="matrix(.12842 0 0 .12818 307.865 195.396)"/><path d="M249.974 226.806l-.672 2.166h-2.289l1.866 1.344-.697 2.166 1.817-1.344 1.842 1.344-.697-2.166 1.841-1.293h-2.264l-.697-2.166m-8.71.669l-.323 2.242-2.24.35 2.041 1.02-.348 2.236 1.592-1.618 2.016 1.026-1.045-2.02 1.617-1.593-2.24.35-1.045-2.019m-8.485 2.141l.025 2.268-2.165.72 2.19.675v2.262l1.294-1.867 2.165.675-1.369-1.822 1.32-1.84-2.166.726-1.368-1.822m-7.914 3.484l.398 2.242-2.015 1.07 2.264.3.373 2.235.97-2.038 2.24.3-1.642-1.593.995-2.02-2.015 1.07-1.642-1.567m33.892-5.573l.324 2.242 2.24.35-2.041 1.02.348 2.236-1.593-1.618-2.015 1.026 1.045-2.02-1.593-1.593 2.24.35 1.045-2.019m8.462 2.141l-.025 2.268 2.165.72-2.19.675v2.262l-1.294-1.867-2.165.675 1.369-1.822-1.32-1.84 2.14.726 1.37-1.822m7.938 3.484l-.398 2.242 2.016 1.07-2.265.3-.373 2.235-.97-2.038-2.24.3 1.642-1.593-.995-2.02 2.015 1.07 1.643-1.567" fill="#fff"/><path fill="#865800" d="M246.245 281.601l.249-16.646c0-.796.15-.923.174-.05l.05 16.874"/><path stroke-linejoin="round" d="M246.245 281.601l.249-16.646c0-.796.15-.923.174-.05l.05 16.874" stroke="#000" stroke-linecap="round" fill="#704d25" stroke-width=".128"/><path fill="#fff" d="M246.692 264.93c.572-.497 1.891.624 2.712.153-.497 1.611-2.488.344-2.712.942v-1.095"/><path stroke-linejoin="round" d="M246.692 264.93c.572-.497 1.891.624 2.712.153-.497 1.611-2.488.344-2.712.942v-1.095" stroke="#000" stroke-linecap="round" fill="none" stroke-width=".128"/><path fill="#865800" d="M251.868 281.627l.249-16.62c0-.797.15-.95.174-.026l.05 16.843"/><path stroke-linejoin="round" d="M251.868 281.627l.249-16.62c0-.797.15-.95.174-.026l.05 16.843" stroke="#000" stroke-linecap="round" fill="#704d25" stroke-width=".128"/><path fill="#fff" d="M252.341 264.98c.572-.496 1.892.625 2.713.147-.523 1.619-2.489.35-2.713.95v-1.096"/><path stroke-linejoin="round" d="M252.341 264.98c.572-.496 1.892.625 2.713.147-.523 1.619-2.489.35-2.713.95v-1.096" stroke="#000" stroke-linecap="round" fill="none" stroke-width=".128"/><path fill="#865800" d="M257.193 282.55l.25-16.651c0-.797.148-.918.173-.02l.05 16.844"/><path stroke-linejoin="round" d="M257.193 282.55l.25-16.651c0-.797.148-.918.173-.02l.05 16.844" stroke="#000" stroke-linecap="round" fill="#704d25" stroke-width=".128"/><path fill="#fff" d="M257.642 265.899c.572-.497 1.891.624 2.712.127-.522 1.618-2.488.35-2.712.943v-1.09"/><path stroke-linejoin="round" d="M257.642 265.899c.572-.497 1.891.624 2.712.127-.522 1.618-2.488.35-2.712.943v-1.09.02z" stroke="#000" stroke-linecap="round" fill="none" stroke-width=".128"/><path fill="#704d25" d="M259.11 284.462c-.573 0-1.294-.268-1.494-.72-.423.401-2.19.624-2.886.026-.473.401-1.941.675-2.688.197-.597.523-2.364.478-3.285-.07-.373.395-1.443.694-2.015.745-.822-1.172-3.037-3.038-4.43-3.733-1.568-.77-4.703-2.268-6.37-2.988-.971-.42-1.867-1.146-.025-.35 1.966.847 5.126 2.115 7.266 3.064 3.061 1.344 15.28 1.147 17.294.969 1.046-.07 2.44-.867 3.41-1.466.747-.452.771-.178.05.198-.797.42-1.668.745-2.29 1.618-.846 1.172-2.016 1.695-2.464 2.465"/><path stroke-linejoin="round" d="M259.11 284.462c-.573 0-1.294-.268-1.494-.72-.423.401-2.19.624-2.886.026-.473.401-1.941.675-2.688.197-.597.523-2.364.478-3.285-.07-.373.395-1.443.694-2.015.745-.822-1.172-3.037-3.038-4.43-3.733-1.568-.77-4.703-2.268-6.37-2.988-.971-.42-1.867-1.146-.025-.35 1.966.847 5.126 2.115 7.266 3.064 3.061 1.344 15.28 1.147 17.294.969 1.046-.07 2.44-.867 3.41-1.466.747-.452.771-.178.05.198-.797.42-1.668.745-2.29 1.618-.846 1.172-2.016 1.695-2.464 2.465l-.074.045z" stroke="#000" stroke-linecap="round" fill="#704d25" stroke-width=".128"/><path fill="#fff" d="M260.254 268.74l-3.957-.428c-.697 1.173-.796 2.638-.423 3.663 1.27-1.197 3.559-.573 4.704.045-.374-1.045-.946-2.459-.299-3.255"/><path stroke-linejoin="round" d="M260.254 268.74l-3.957-.428c-.697 1.173-.796 2.638-.423 3.663 1.27-1.197 3.559-.573 4.704.045-.374-1.045-.946-2.459-.299-3.255l-.025-.026z" stroke="#000" stroke-linecap="round" fill="none" stroke-width=".128"/><path fill="#fff" d="M260.553 271.995c-1.17.026-3.956-.045-4.828-.045-.945 1.217-.423 3.058-.199 3.759 1.045-1.67 4.355-.777 5.624.42-.647-1.223-1.145-2.267-.572-4.153"/><path stroke-linejoin="round" d="M260.553 271.995c-1.17.026-3.956-.045-4.828-.045-.945 1.217-.423 3.058-.199 3.759 1.045-1.67 4.355-.777 5.624.42-.647-1.223-1.145-2.267-.572-4.153l-.025.019z" stroke="#000" stroke-linecap="round" fill="none" stroke-width=".128"/><path fill="#fff" d="M261.126 276.18c-1.145-.204-4.828-.452-5.575-.65-.597 1.243-1.095 2.86-1.343 4.409 1.791-1.969 5.947-.523 6.818 1.389-.87-1.644-1.742-4.129.124-5.148"/><path stroke-linejoin="round" d="M261.126 276.18c-1.145-.204-4.828-.452-5.575-.65-.597 1.243-1.095 2.86-1.343 4.409 1.791-1.969 5.947-.523 6.818 1.389-.87-1.644-1.742-4.129.124-5.148h-.024z" stroke="#000" stroke-linecap="round" fill="none" stroke-width=".128"/><path fill="#fff" d="M256.198 267.542l-5.226-.694c-.746.872-1.294 2.414-1.22 4.204 1.096-1.045 5.102-.624 6.123.873-.349-1.618-.797-3.657.348-4.409"/><path stroke-linejoin="round" d="M256.198 267.542l-5.226-.694c-.746.872-1.294 2.414-1.22 4.204 1.096-1.045 5.102-.624 6.123.873-.349-1.618-.797-3.657.348-4.409l-.025.026z" stroke="#000" stroke-linecap="round" fill="none" stroke-width=".128"/><path fill="#fff" d="M255.8 272.072l-5.799-.77c-.92 1.171-.87 2.834-.647 4.605 1.32-1.096 5.624-.497 6.645.968-.622-2.14-1.145-3.408-.174-4.803"/><path stroke-linejoin="round" d="M255.8 272.072l-5.799-.77c-.92 1.171-.87 2.834-.647 4.605 1.32-1.096 5.624-.497 6.645.968-.622-2.14-1.145-3.408-.174-4.803h-.025z" stroke="#000" stroke-linecap="round" fill="none" stroke-width=".128"/><path fill="#fff" d="M255.974 276.875l-5.898-.599c-.92 1.147-1.543 2.319-1.343 4.033.92-1.516 4.827-.42 6.494 1.267-.995-1.318-1.095-3.21.747-4.701"/><path stroke-linejoin="round" d="M255.974 276.875l-5.898-.599c-.92 1.147-1.543 2.319-1.343 4.033.92-1.516 4.827-.42 6.494 1.267-.995-1.318-1.095-3.21.747-4.701z" stroke="#000" stroke-linecap="round" fill="none" stroke-width=".128"/><path fill="#fff" d="M246.368 267.542c-.647.497-1.642 2.217-1.792 2.688 1.095-.446 3.41-.573 4.853.497-.423-.822-.572-2.261-.2-2.86-.571-.249-2.09-.376-2.836-.3"/><path stroke-linejoin="round" d="M246.368 267.542c-.647.497-1.642 2.217-1.792 2.688 1.095-.446 3.41-.573 4.853.497-.423-.822-.572-2.261-.2-2.86-.571-.249-2.09-.376-2.836-.3l-.025-.025z" stroke="#000" stroke-linecap="round" fill="none" stroke-width=".128"/><path fill="#fff" d="M243.954 271.026c1.518-.026 4.629.35 5.973.72-.796 1.197-.697 3.236-.373 4.504-2.066-2.039-5.475-1.988-7.491-1.389.373-.924 1.294-2.841 1.867-3.86"/><path stroke-linejoin="round" d="M243.954 271.026c1.518-.026 4.629.35 5.973.72-.796 1.197-.697 3.236-.373 4.504-2.066-2.039-5.475-1.988-7.491-1.389.373-.924 1.294-2.841 1.867-3.86l.024.025z" stroke="#000" stroke-linecap="round" fill="none" stroke-width=".128"/><path fill="#fff" d="M249.976 276.703c-1.468.051-5.225-.599-6.943-1.446-.597 1.618-.87 4.307-.92 5.275 1.667-2.236 5.748-.994 7.042 1.293-.124-1.217-.572-4.204.821-5.147"/><path stroke-linejoin="round" d="M249.976 276.703c-1.468.051-5.225-.599-6.943-1.446-.597 1.618-.87 4.307-.92 5.275 1.667-2.236 5.748-.994 7.042 1.293-.124-1.217-.572-4.204.821-5.147v.025z" stroke="#000" stroke-linecap="round" fill="none" stroke-width=".128"/><path fill="#fff" d="M246.368 267.542c-4.131 2.49-7.266 7.517-8.436 11.002 1.17-.026 2.638.35 3.16 1.395 1.22-5.007 2.937-9.632 5.276-12.423"/><path stroke-linejoin="round" d="M246.368 267.542c-4.131 2.49-7.266 7.517-8.436 11.002 1.17-.026 2.638.35 3.16 1.395 1.22-5.007 2.937-9.632 5.276-12.423v.026zm.124-2.415c-3.384 3.408-8.186 9.486-9.929 12.792m23.691-9.179c.92 4.478 1.145 10.498.772 12.715" stroke="#000" stroke-linecap="round" fill="none" stroke-width=".128"/><path fill="#00009e" d="M265.152 276.827c-1.05.524-3.038-.94-3.977-.275v-.58c.911-.637 2.9.827 3.977.276v.608"/><path fill="#002b7f" d="M265.152 276.827c-1.05.524-3.038-.94-3.977-.275v-.58c.911-.637 2.9.827 3.977.276v.608-.028z"/><path fill="#fff" d="M265.152 277.435c-1.05.523-3.038-.94-3.977-.304v-.608c.911-.637 2.9.827 3.977.276v.608"/><path fill="none" d="M265.152 277.435c-1.05.523-3.038-.94-3.977-.304v-.608c.911-.637 2.9.827 3.977.276v.636z"/><path fill="#ff0016" d="M265.152 278.044c-1.05.552-3.038-.912-3.977-.276v-.608c.911-.637 2.9.827 3.977.304v.58"/><path fill="#ce1126" d="M265.152 278.044c-1.05.552-3.038-.912-3.977-.276v-.608c.911-.637 2.9.827 3.977.304v.58"/><path fill="#fff" d="M265.152 278.652c-1.05.551-3.038-.913-3.977-.276v-.609c.911-.608 2.9.828 3.977.276v.609"/><path fill="none" d="M265.152 278.652c-1.05.551-3.038-.913-3.977-.276v-.609c.911-.608 2.9.828 3.977.276v.609"/><path fill="#00009e" d="M265.152 279.232c-1.05.552-3.038-.912-3.977-.276v-.608c.911-.636 2.9.828 3.977.276v.58"/><path fill="#002b7f" d="M265.152 279.232c-1.05.552-3.038-.912-3.977-.276v-.608c.911-.636 2.9.828 3.977.276v.608z"/><g stroke-width="1.832"><path fill="#865800" d="M248.411 251.813l.088-5.906c0-.283.053-.328.062-.018l.018 5.988"/><path stroke-linejoin="round" d="M248.411 251.813l.088-5.906c0-.283.053-.328.062-.018l.018 5.988" stroke="#000" stroke-linecap="round" fill="#704d25" stroke-width=".083"/><path fill="#fff" d="M248.57 245.898c.203-.177.67.221.962.054-.176.572-.883.122-.962.334v-.388"/><path stroke-linejoin="round" d="M248.57 245.898c.203-.177.67.221.962.054-.176.572-.883.122-.962.334v-.388" stroke="#000" stroke-linecap="round" fill="none" stroke-width=".083"/><path fill="#865800" d="M250.407 251.823l.088-5.898c0-.283.053-.337.062-.01l.017 5.978"/><path stroke-linejoin="round" d="M250.407 251.823l.088-5.898c0-.283.053-.337.062-.01l.017 5.978" stroke="#000" stroke-linecap="round" fill="#704d25" stroke-width=".083"/><path fill="#fff" d="M250.574 245.916c.203-.177.672.221.963.052-.186.574-.883.124-.963.337v-.39"/><path stroke-linejoin="round" d="M250.574 245.916c.203-.177.672.221.963.052-.186.574-.883.124-.963.337v-.39" stroke="#000" stroke-linecap="round" fill="none" stroke-width=".083"/><path fill="#865800" d="M252.296 252.15l.088-5.909c0-.282.053-.325.062-.006l.018 5.977"/><path stroke-linejoin="round" d="M252.296 252.15l.088-5.909c0-.282.053-.325.062-.006l.018 5.977" stroke="#000" stroke-linecap="round" fill="#704d25" stroke-width=".083"/><path fill="#fff" d="M252.455 246.241c.203-.176.671.222.963.046-.186.574-.883.124-.963.334v-.386"/><path stroke-linejoin="round" d="M252.455 246.241c.203-.176.671.222.963.046-.186.574-.883.124-.963.334v-.386.006z" stroke="#000" stroke-linecap="round" fill="none" stroke-width=".083"/><path fill="#704d25" d="M252.976 252.829c-.203 0-.46-.095-.53-.256-.15.143-.777.222-1.024.01-.168.142-.689.239-.954.07-.212.185-.839.169-1.165-.025-.133.14-.513.246-.716.264-.291-.416-1.077-1.078-1.572-1.325a66.307 66.307 0 0 0-2.26-1.06c-.345-.15-.663-.407-.009-.124.698.3 1.82.75 2.578 1.087 1.087.477 5.422.407 6.137.344.371-.025.866-.308 1.21-.52.265-.16.274-.064.018.07-.283.149-.592.264-.812.574-.3.416-.716.601-.875.875"/><path stroke-linejoin="round" d="M252.976 252.829c-.203 0-.46-.095-.53-.256-.15.143-.777.222-1.024.01-.168.142-.689.239-.954.07-.212.185-.839.169-1.165-.025-.133.14-.513.246-.716.264-.291-.416-1.077-1.078-1.572-1.325a66.307 66.307 0 0 0-2.26-1.06c-.345-.15-.663-.407-.009-.124.698.3 1.82.75 2.578 1.087 1.087.477 5.422.407 6.137.344.371-.025.866-.308 1.21-.52.265-.16.274-.064.018.07-.283.149-.592.264-.812.574-.3.416-.716.601-.875.875l-.026.016z" stroke="#000" stroke-linecap="round" fill="#704d25" stroke-width=".083"/><path fill="#fff" d="M253.382 247.25l-1.404-.152c-.247.416-.282.936-.15 1.3.45-.425 1.263-.204 1.67.016-.133-.371-.337-.873-.107-1.156"/><path stroke-linejoin="round" d="M253.382 247.25l-1.404-.152c-.247.416-.282.936-.15 1.3.45-.425 1.263-.204 1.67.016-.133-.371-.337-.873-.107-1.156l-.009-.009z" stroke="#000" stroke-linecap="round" fill="none" stroke-width=".083"/><path fill="#fff" d="M253.488 248.405c-.415.009-1.404-.016-1.713-.016-.335.432-.15 1.085-.07 1.334.37-.593 1.545-.276 1.995.149-.23-.434-.406-.805-.203-1.474"/><path stroke-linejoin="round" d="M253.488 248.405c-.415.009-1.404-.016-1.713-.016-.335.432-.15 1.085-.07 1.334.37-.593 1.545-.276 1.995.149-.23-.434-.406-.805-.203-1.474l-.009.007z" stroke="#000" stroke-linecap="round" fill="none" stroke-width=".083"/><path fill="#fff" d="M253.692 249.89c-.407-.072-1.714-.16-1.979-.23a5.961 5.961 0 0 0-.476 1.564c.635-.699 2.11-.186 2.42.492-.31-.583-.62-1.464.043-1.826"/><path stroke-linejoin="round" d="M253.692 249.89c-.407-.072-1.714-.16-1.979-.23a5.961 5.961 0 0 0-.476 1.564c.635-.699 2.11-.186 2.42.492-.31-.583-.62-1.464.043-1.826h-.008z" stroke="#000" stroke-linecap="round" fill="none" stroke-width=".083"/><path fill="#fff" d="M251.943 246.825l-1.855-.247c-.264.31-.459.857-.432 1.492.388-.37 1.81-.221 2.172.31-.123-.574-.282-1.298.124-1.564"/><path stroke-linejoin="round" d="M251.943 246.825l-1.855-.247c-.264.31-.459.857-.432 1.492.388-.37 1.81-.221 2.172.31-.123-.574-.282-1.298.124-1.564l-.009.009z" stroke="#000" stroke-linecap="round" fill="none" stroke-width=".083"/><path fill="#fff" d="M251.802 248.432l-2.058-.273c-.327.415-.309 1.005-.23 1.634.468-.389 1.996-.176 2.358.344-.22-.76-.406-1.21-.062-1.705"/><path stroke-linejoin="round" d="M251.802 248.432l-2.058-.273c-.327.415-.309 1.005-.23 1.634.468-.389 1.996-.176 2.358.344-.22-.76-.406-1.21-.062-1.705h-.008z" stroke="#000" stroke-linecap="round" fill="none" stroke-width=".083"/><path fill="#fff" d="M251.863 250.136l-2.092-.212c-.327.407-.548.823-.477 1.43.326-.537 1.713-.148 2.304.45-.353-.467-.388-1.139.265-1.668"/><path stroke-linejoin="round" d="M251.863 250.136l-2.092-.212c-.327.407-.548.823-.477 1.43.326-.537 1.713-.148 2.304.45-.353-.467-.388-1.139.265-1.668z" stroke="#000" stroke-linecap="round" fill="none" stroke-width=".083"/><path fill="#fff" d="M248.455 246.825c-.23.176-.583.786-.636.954.388-.159 1.21-.204 1.722.176-.15-.292-.203-.803-.07-1.015-.204-.088-.742-.134-1.007-.106"/><path stroke-linejoin="round" d="M248.455 246.825c-.23.176-.583.786-.636.954.388-.159 1.21-.204 1.722.176-.15-.292-.203-.803-.07-1.015-.204-.088-.742-.134-1.007-.106l-.01-.01z" stroke="#000" stroke-linecap="round" fill="none" stroke-width=".083"/><path fill="#fff" d="M247.598 248.06c.539-.008 1.643.125 2.12.256-.283.425-.248 1.149-.133 1.599-.733-.724-1.943-.706-2.658-.493.133-.328.46-1.008.662-1.37"/><path stroke-linejoin="round" d="M247.598 248.06c.539-.008 1.643.125 2.12.256-.283.425-.248 1.149-.133 1.599-.733-.724-1.943-.706-2.658-.493.133-.328.46-1.008.662-1.37l.01.009z" stroke="#000" stroke-linecap="round" fill="none" stroke-width=".083"/><path fill="#fff" d="M249.735 250.075c-.52.019-1.854-.212-2.464-.513-.212.575-.309 1.528-.326 1.872.591-.793 2.04-.353 2.499.459-.044-.432-.203-1.492.291-1.827"/><path stroke-linejoin="round" d="M249.735 250.075c-.52.019-1.854-.212-2.464-.513-.212.575-.309 1.528-.326 1.872.591-.793 2.04-.353 2.499.459-.044-.432-.203-1.492.291-1.827v.01z" stroke="#000" stroke-linecap="round" fill="none" stroke-width=".083"/><path fill="#fff" d="M248.455 246.825c-1.466.883-2.579 2.667-2.994 3.904.415-.01.936.124 1.122.495.432-1.777 1.042-3.418 1.872-4.408"/><path stroke-linejoin="round" d="M248.455 246.825c-1.466.883-2.579 2.667-2.994 3.904.415-.01.936.124 1.122.495.432-1.777 1.042-3.418 1.872-4.408v.009zm.044-.857c-1.201 1.21-2.905 3.366-3.524 4.539m8.407-3.257c.327 1.589.406 3.725.274 4.512" stroke="#000" stroke-linecap="round" fill="none" stroke-width=".083"/><path fill="#00009e" d="M255.12 250.12c-.372.185-1.078-.334-1.41-.098v-.206c.322-.226 1.028.294 1.41.098v.216"/><path fill="#002b7f" d="M255.12 250.12c-.372.185-1.078-.334-1.41-.098v-.206c.322-.226 1.028.294 1.41.098v.216-.01z"/><path fill="#fff" d="M255.12 250.335c-.372.186-1.078-.334-1.41-.108v-.216c.322-.225 1.028.294 1.41.098v.216"/><path fill="none" d="M255.12 250.335c-.372.186-1.078-.334-1.41-.108v-.216c.322-.225 1.028.294 1.41.098v.226z"/><path fill="#ff0016" d="M255.12 250.551c-.372.196-1.078-.323-1.41-.098v-.215c.322-.226 1.028.293 1.41.107v.206"/><path fill="#ce1126" d="M255.12 250.551c-.372.196-1.078-.323-1.41-.098v-.215c.322-.226 1.028.293 1.41.107v.206"/><path fill="#fff" d="M255.12 250.767c-.372.196-1.078-.324-1.41-.098v-.216c.322-.216 1.028.294 1.41.098v.216"/><path fill="none" d="M255.12 250.767c-.372.196-1.078-.324-1.41-.098v-.216c.322-.216 1.028.294 1.41.098v.216"/><path fill="#00009e" d="M255.12 250.973c-.372.196-1.078-.324-1.41-.098v-.216c.322-.226 1.028.294 1.41.098v.206"/><path fill="#002b7f" d="M255.12 250.973c-.372.196-1.078-.324-1.41-.098v-.216c.322-.226 1.028.294 1.41.098v.216z"/></g><path d="M279.949 231.9c-3.16 12.492.373 20.405 2.811 25.877 2.29 5.103 2.738 16.971-5.623 25.36-12.418 12.417-21.875 7.416-26.628 14.182m-1.019.024c-4.753-6.765-14.21-1.764-26.627-14.18-8.362-8.39-7.913-20.259-5.624-25.362 2.438-5.446 5.972-13.359 2.813-25.877" stroke="#000" stroke-width=".385" fill="none"/><g transform="translate(196.615 195.396) scale(.12818)"><g stroke-linejoin="round" stroke="#000" stroke-width="3" stroke-linecap="round"><path d="M427.55 39.787c1.357 6.308 3.106 23.321-6.212 25.758 17.082 21.075 41.737 24.086 85.03 24.086 27.18 0 49.118-.191 65.23 0 0 5.4-1.75 11.183-1.75 17.921 0 6.5 6.799 9.51 16.7 7.264 9.9-2.246 31.061-8.602 42.512 1.481 19.224 17.204 54.555 20.167 64.067 31.015-2.912-13.094-15.337-26.332-29.119-37.37 13.006-1.864 29.894-.526 35.72 3.918-14.76-15.999-41.55-16.382-55.14-24.219-13.59-7.838-26.6-14.767-36.69-17.395 0-4.444-.587-8.028-4.469-10.609-8.543-5.974-25.237-8.028-38.825-8.793 1.939-2.055 2.326-4.492 2.326-8.22V23.55c0-7.312.78-9.175-7.57-14.385-32.224-19.785-71.441-33.978-142.88-33.978-71.248 0-110.47 14.002-142.88 33.978-8.542 5.21-7.568 7.073-7.568 14.385v21.075c0 3.728.194 6.165 2.326 8.22-13.588.573-30.088 2.628-38.825 8.793-3.688 2.58-4.468 5.974-4.468 10.61-9.9 2.437-22.906 9.366-36.688 17.394-13.593 7.838-40.38 8.22-55.136 24.23 5.63-4.445 22.519-5.974 35.525-3.92-13.588 10.849-26.012 24.087-29.12 37.372 9.513-10.849 44.844-13.812 64.262-31.016 11.257-10.084 32.419-3.918 42.513-1.481 9.9 2.246 16.699-.573 16.699-7.264 0-6.738-1.75-12.521-1.75-17.921 15.92-.382 37.856 0 65.23 0 43.1 0 67.755-3.01 85.03-24.086-9.512-2.437-7.763-19.259-6.212-25.758-20.188-4.492-30.282-12.138-46.593-12.138-16.112 0-19.025 8.554-19.025 11.756v2.628c-12.812 0-30.868-3.202-35.331-11.613 24.85-10.084 61.736-19.21 112.4-19.21 50.668 0 87.555 9.127 112.4 19.21-4.463 8.411-22.52 11.613-35.331 11.613v-2.628c0-3.01-2.719-11.756-19.025-11.756s-26.405 7.455-46.593 12.138h-.775z" fill="#89c5e3"/><path d="M260.98 89.965c-12.619.191-21.55.956-26.405 2.437-7.763 2.438-8.538 6.547-3.494 8.793M339.21 42.176v9.749c0 6.308 6.794 14.528 17.28 14.528 25.819 0 30.868-4.444 50.087-3.919" fill="none"/><path d="M406.38 62.009c-17.86-3.011-32.03-12.521-47.76-12.521-15.531 0-18.831 7.073-16.112 10.466M224.48 72.809V92.02c0 5.257 3.688 12.521 17.668 9.749 12.231-2.246 20.188.526 20.188 5.782" fill="none"/><path d="M267.96 53.215c2.912 2.963 9.319 5.591 23.493 10.657 26.012 9.51 85.805 16.009 124.64-.956M528.88 30.42c5.05 2.055 9.706 4.11 13.787 6.165 24.263 12.138 26.012 14.958 17.469 19.594m11.654 33.786c12.619.191 21.55.956 26.405 2.437 7.763 2.438 8.538 6.547 3.494 8.793M493.36 42.176v9.749c0 6.308-6.794 14.528-17.28 14.528-25.819 0-30.868-4.444-50.087-3.919" fill="none"/><path d="M426.18 62.009c17.87-3.011 32.04-12.521 47.77-12.521 15.526 0 18.831 7.073 15.919 10.466M608.09 72.809V92.02c0 5.257-3.688 12.521-17.668 9.749-12.231-2.246-20.193.526-20.193 5.782" fill="none"/><path d="M564.61 53.215c-2.912 2.963-9.319 5.591-23.493 10.657-26.012 9.51-85.805 16.009-124.64-.956" fill="none"/><path d="M416.28 66.453c11.843 0 12.231-8.937 12.231-17.156 0-8.029-.388-17.013-12.231-17.013s-12.231 8.984-12.231 17.013.388 17.156 12.231 17.156z" fill="#89c5e3"/><path d="M304.55 30.437c-5.169 2.052-9.936 4.105-14.113 6.157-24.843 12.123-26.628 14.939-17.883 19.568" fill="none"/></g><g id="aq" stroke="#000" stroke-width="3" fill="#078930"><path d="M387.94 192.56c16.306-10.486 36.499-28.13 43.874-39.809 10.094-16.301 11.456-8.35 19.219-9.691-18.25 19.979-40.962 41.35-57.074 52.63l-6.019-3.13m-136.48 39.21c-40.768-23.11-56.299.994-65.812 2.137 11.257 2.734 20.769 20.774 65.812-2.137z"/><path d="M269.71 218.4c-38.83-26.241-56.105-3.33-65.816-2.733 11.068 3.479 19.224 22.315 65.816 2.733z"/><path d="M297.47 202.84c-38.248-26.987-56.105-4.473-65.816-4.075 11.068 3.876 18.637 22.514 65.816 4.075z"/><path d="M320.38 189.08c-35.137-31.062-55.33-10.486-64.842-11.282 10.482 5.07 16.112 24.452 64.842 11.282z"/><path d="M349.69 178.99c-33.582-32.851-54.744-13.22-64.256-14.562 10.288 5.417 14.95 25.396 64.256 14.562z"/><path d="M380.37 175.66c-27.762-37.672-51.831-21.917-61.15-24.651 9.125 7.206 10.482 27.384 61.15 24.651z"/><path d="M385.42 177.2c-1.362-8.498-17.28-19.383-18.637-23.458 4.075-.398 4.657-5.268 2.912-7.008-1.361-1.342-4.661-.596-6.406 1.193-1.75 2.137-3.494 7.157 2.132 11.431 5.825 4.274 13.205 12.027 15.536 17.842"/><path stroke-linejoin="round" d="M214.38 234.5c11.063-3.33 25.043-1.74 34.75-2.733M232.44 218.2c11.451-2.535 25.043 0 34.943 0m-7.183-16.35c11.451-2.087 25.043.596 34.943.596M283.49 184.01c11.65-.944 24.85 3.33 34.556 4.473M313 171.98c11.644-.398 24.656 4.473 34.362 6.212m-1.942-15.162c11.649 1.193 23.686 8.548 32.811 11.48" stroke-linecap="round"/></g><use xlink:href="#aq" transform="matrix(-1 0 0 1 832.76 0)"/><g stroke-linejoin="round" stroke="#000" stroke-linecap="round" stroke-width="3"><path d="M416.49 190.46c9.125 0 16.888 0 22.519-.745v-13.021c0-4.275 15.143-9.344 38.05-4.871 89.692 17.494 101.92 58.049 170.07 81.357.775.199 3.3.994 6.212 1.54 1.75-4.075 3.688-8.15 5.825-13.17 1.163-3.727 11.068-3.528 19.8.547 10.1 4.87 14.562 10.487 12.817 13.42-1.75 4.274-3.499 7.753-5.05 11.231 15.92 5.666 44.844 14.214 35.332 52.433-7.376-7.156-25.237-14.959-36.3-14.959-12.62 0-26.211-4.82-21.937-18.637-2.331-1.143-6.411-3.28-8.544-3.677-.387 1.193-.969 2.336-1.555 3.479-2.913 7.206-15.531 9.74-28.15 5.467-71.055-24.253-92.992-77.878-176.86-78.624v2.335c0 6.76-8.737 12.971-32.225 12.971-23.3 0-32.225-6.212-32.225-12.97v-2.336c-83.673.546-105.81 54.172-176.86 78.624-12.425 4.274-25.043 1.54-28.15-5.467-.393-1.143-.974-2.287-1.556-3.48-2.137.398-6.212 2.535-8.543 3.678 4.08 13.618-9.125 18.637-21.937 18.637-11.063 0-28.731 7.803-36.3 14.96-9.513-38.02 19.025-46.569 35.33-52.434-1.555-3.478-3.105-6.957-5.049-11.232-1.55-2.932 2.719-8.548 12.812-13.419 8.738-4.274 18.443-4.472 19.805-.546 2.138 4.82 3.882 8.896 5.825 13.17 2.913-.547 5.238-1.342 6.213-1.541 67.949-23.309 80.373-63.863 170.06-81.357 22.717-4.473 38.055.596 38.055 4.87v13.022c5.63.546 13.394.745 22.519.745z" fill="#fff"/><path d="M393.78 189.71c-6.019-.596-9.512-1.938-9.512-4.274 0-5.815 9.512-3.877 9.512-8.747M165.27 253.58c3.494 8.35 7.962 19.035 12.037 28.13m-20.577-23.86c3.494 8.15 10.099 22.116 12.037 27.931" fill="#fff"/><path d="M140.62 255.71c2.33 4.075 14.562-1.938 16.112 1.938 1.362 4.076-2.326 6.213-10.869 9.294m27.567-25.392c1.744 5.218-10.487 7.356-7.962 12.027 1.556 3.081 8.35 2.137 13.786.944" fill="none"/><path d="M384.06 185.24v26.987m55.14-22.517c5.825-.596 9.512-1.938 9.512-4.274 0-5.815-9.512-3.877-9.512-8.747m228.5 76.891c-3.494 8.35-7.962 19.035-12.037 28.13m20.577-23.86c-3.499 8.15-10.099 22.116-12.037 27.931" fill="#fff"/><path d="M692.36 255.71c-2.33 4.075-14.562-1.938-16.112 1.938-1.362 4.076 2.326 6.213 10.869 9.294M659.55 241.55c-1.744 5.218 10.487 7.356 7.962 12.027-1.556 3.081-8.35 2.137-13.787.944" fill="none"/><path d="M448.91 185.24v26.987" fill="#fff"/></g><path d="M203.96 281.77l-7.523-26.884 9.371-2.622c2.396-.67 4.176-.908 5.338-.713 1.162.196 2.24.797 3.233 1.805.994 1.007 1.724 2.342 2.189 4.005.588 2.102.558 3.937-.092 5.503-.649 1.566-1.857 2.774-3.623 3.624 1.146.417 2.144.946 2.995 1.584.85.639 2.108 1.859 3.773 3.66l4.145 4.496-5.3 1.483-4.865-4.947c-1.753-1.79-2.912-2.892-3.476-3.308-.565-.415-1.107-.659-1.629-.73-.52-.072-1.295.035-2.322.323l-.917.256 3.141 11.223zm.097-16.756l3.3-.924c2.018-.564 3.277-1.012 3.777-1.343.5-.331.847-.814 1.039-1.448.192-.633.163-1.396-.087-2.289-.24-.856-.603-1.495-1.09-1.92a2.718 2.718 0 0 0-1.695-.682c-.453-.018-1.676.251-3.669.81l-3.484.974zm24.613 9.536l-12.392-25.016 15.221-7.54 2.096 4.232-11.092 5.494 2.748 5.546 10.306-5.105 2.088 4.215-10.307 5.105 3.373 6.809 11.467-5.68 2.088 4.214zm20.14-10.63l-15.128-23.463 6.242-4.024c2.326-1.5 3.919-2.368 4.778-2.605 1.376-.373 2.816-.207 4.321.5 1.505.705 2.86 1.992 4.064 3.86 1.094 1.696 1.69 3.324 1.79 4.884.099 1.56-.182 2.881-.843 3.964-.661 1.084-2.165 2.382-4.513 3.896l-2.545 1.64 5.707 8.85zm-8.695-21.991l4.292 6.658 2.145-1.383c1.44-.928 2.354-1.66 2.74-2.197.388-.537.576-1.175.566-1.917-.01-.741-.262-1.496-.757-2.264-.502-.78-1.096-1.325-1.782-1.639-.685-.313-1.337-.399-1.955-.257-.619.142-1.74.736-3.36 1.781zm10.435-12.159l3.778-2.64 8.66 12.396c1.345 1.925 2.268 3.146 2.769 3.664.871.893 1.815 1.395 2.83 1.507 1.015.111 2.037-.193 3.068-.913.874-.61 1.45-1.304 1.73-2.08.278-.775.277-1.58-.004-2.413-.28-.834-1.217-2.39-2.81-4.67l-8.844-12.66 3.793-2.65 8.398 12.02c2.145 3.07 3.532 5.404 4.16 7.001.628 1.598.664 3.222.106 4.874-.557 1.652-1.777 3.135-3.661 4.451-1.957 1.367-3.73 2.083-5.318 2.148-1.589.065-3.075-.368-4.46-1.297s-3.274-3.106-5.666-6.53zm19.27-13.94l7.703-4.957c2.103-1.353 3.705-2.112 4.806-2.278 1.102-.165 2.259.049 3.471.643 1.212.593 2.214 1.504 3.004 2.732.728 1.131 1.135 2.315 1.22 3.55s-.13 2.33-.65 3.284c1.404-.33 2.744-.211 4.022.355 1.278.567 2.37 1.555 3.278 2.964 1.099 1.708 1.617 3.416 1.554 5.125s-.565 3.063-1.508 4.061c-.655.694-2.403 1.955-5.243 3.782l-6.55 4.215zm6.39 1.413l3.493 5.43 2.562-1.65c1.538-.989 2.47-1.627 2.8-1.914.593-.533.93-1.146 1.012-1.84.081-.695-.129-1.431-.63-2.21-.447-.695-.961-1.16-1.544-1.396-.582-.237-1.124-.27-1.625-.098-.501.172-1.777.917-3.826 2.236zm6.008 9.337l4.04 6.277 3.602-2.319c1.58-1.017 2.541-1.752 2.883-2.206.342-.454.51-1.022.5-1.703-.007-.682-.252-1.396-.733-2.144-.495-.768-1.065-1.296-1.71-1.583a2.97 2.97 0 0 0-1.956-.19c-.66.16-1.822.776-3.488 1.848zm20.582.56l-12.79-24.557 4.087-2.129 10.617 20.386 10.201-5.313 2.173 4.172zm17.29-9.33l-10.795-25.746 4.25-1.782 10.795 25.746zm18.42-16.67l4.784.377c.226 3.192-.232 5.712-1.376 7.558s-2.853 3.11-5.127 3.79c-2.859.855-5.505.448-7.94-1.222-2.803-1.93-4.851-5.055-6.143-9.372-1.365-4.561-1.405-8.439-.121-11.632 1.118-2.773 3.185-4.611 6.202-5.514 2.456-.735 4.763-.51 6.92.673 1.536.839 2.929 2.35 4.178 4.534l-3.996 2.587c-.713-1.364-1.601-2.307-2.666-2.83a4.377 4.377 0 0 0-3.293-.277c-1.617.484-2.726 1.584-3.325 3.3-.6 1.717-.414 4.2.558 7.447 1.008 3.369 2.224 5.616 3.647 6.74s2.931 1.449 4.525.972c1.167-.35 2.041-1.105 2.621-2.265.58-1.161.764-2.783.552-4.866zm30.13 3.41l-4.942.924-3.13-5.866-8.986 1.68-.687 6.58-4.83.903 3.63-29.079 4.81-.9zm-10.397-9.292l-4.993-9.606-1.147 10.753zm39.057-1.318l8.208.624c2.076.157 3.624.508 4.645 1.051 1.02.544 1.934 1.399 2.74 2.566.806 1.167 1.396 2.646 1.769 4.439.373 1.793.46 3.992.263 6.598-.179 2.348-.6 4.369-1.262 6.064-.663 1.695-1.44 3.018-2.333 3.97a7.852 7.852 0 0 1-3.13 2.063c-1.193.425-2.698.569-4.514.43l-8.45-.641zm4.135 4.936l-1.367 17.992 3.373.256c1.445.11 2.502.053 3.171-.17a3.8 3.8 0 0 0 1.687-1.11c.456-.519.865-1.36 1.227-2.526.361-1.165.616-2.717.763-4.656.153-2.014.135-3.612-.055-4.794-.19-1.182-.553-2.13-1.089-2.84a4.14 4.14 0 0 0-2.04-1.479c-.618-.208-1.828-.381-3.632-.518zm19.335 23.604l-1.723-27.188 16.542-1.049.291 4.6-12.054.764.382 6.027 11.201-.71.29 4.58-11.2.71.469 7.4 12.462-.79.29 4.58zm50.4-26.02l4.378 1.965c-.86 3.082-2.14 5.3-3.838 6.654s-3.732 1.969-6.103 1.845c-2.98-.156-5.335-1.43-7.065-3.822-1.992-2.761-2.87-6.392-2.634-10.893.25-4.754 1.516-8.42 3.799-10.995 1.986-2.235 4.55-3.27 7.695-3.106 2.56.134 4.658 1.121 6.29 2.961 1.165 1.307 1.968 3.199 2.41 5.676l-4.633 1.092c-.213-1.524-.732-2.711-1.558-3.562-.827-.85-1.83-1.307-3.008-1.368-1.687-.089-3.1.575-4.243 1.99-1.142 1.414-1.801 3.814-1.978 7.2-.184 3.511.205 6.036 1.166 7.574.962 1.537 2.274 2.35 3.935 2.437 1.217.063 2.294-.354 3.23-1.252.937-.898 1.656-2.363 2.157-4.397zm10.29-2.53c.794-3.23 1.926-5.772 3.396-7.627 1.47-1.854 3.1-3.104 4.893-3.748 1.793-.644 3.786-.696 5.98-.156 3.181.782 5.474 2.634 6.88 5.555 1.406 2.922 1.557 6.626.453 11.113-1.116 4.537-3.048 7.82-5.796 9.85-2.416 1.799-5.22 2.305-8.414 1.52-3.217-.792-5.482-2.532-6.795-5.221-1.493-3.074-1.692-6.836-.597-11.286zm4.668.952c-.767 3.12-.75 5.604.05 7.455.8 1.85 2.074 2.99 3.825 3.421 1.763.434 3.414.02 4.953-1.242s2.704-3.496 3.492-6.701c.773-3.144.781-5.606.023-7.388-.758-1.781-2.05-2.897-3.874-3.345-1.824-.45-3.496-.056-5.016 1.178s-2.67 3.442-3.453 6.622zm19.442 10.388l4.363 1.272c-.926 3.483-.092 5.774 2.502 6.875 1.286.546 2.44.639 3.46.28 1.022-.36 1.744-1.037 2.165-2.03.248-.584.33-1.136.247-1.654-.084-.518-.333-1.02-.747-1.506s-1.5-1.468-3.26-2.945c-1.578-1.318-2.652-2.477-3.22-3.477-.569-1-.88-2.128-.932-3.385s.176-2.487.687-3.69c.595-1.403 1.449-2.53 2.562-3.382 1.113-.851 2.352-1.325 3.717-1.422s2.871.205 4.519.904c2.477 1.052 4.126 2.545 4.947 4.479.82 1.934.74 4.169-.24 6.704l-4.355-1.58c.398-1.458.404-2.593.017-3.405-.386-.812-1.152-1.461-2.297-1.947-1.145-.486-2.13-.621-2.952-.405-.823.216-1.385.68-1.688 1.394-.297.701-.267 1.41.09 2.127.358.718 1.426 1.791 3.205 3.222 1.876 1.527 3.145 2.835 3.807 3.922.662 1.088 1.015 2.28 1.06 3.574s-.263 2.712-.917 4.255c-.947 2.232-2.43 3.816-4.448 4.753s-4.488.785-7.41-.455c-5.165-2.192-6.792-6.352-4.882-12.478zm21.51 20.02l11.3-20.255-5.937-3.312 2.301-4.124 15.882 8.86-2.3 4.124-5.921-3.303-11.3 20.255zm29.75 18.53l-4.205-2.756 1.805-6.4-7.645-5.01-5.053 4.27-4.109-2.694 22.758-18.462 4.093 2.683zm-1.064-13.904l3.051-10.386-8.275 6.962zm10.274 20.564l15.933-22.924 7.99 5.554c2.044 1.42 3.36 2.64 3.95 3.66.589 1.02.812 2.235.669 3.643-.144 1.407-.708 2.82-1.694 4.238-1.246 1.793-2.68 2.938-4.3 3.434-1.621.497-3.322.336-5.102-.484.407 1.149.636 2.255.686 3.317.05 1.063-.09 2.81-.419 5.24l-.825 6.06-4.519-3.141.715-6.901c.263-2.492.375-4.088.336-4.788-.04-.7-.198-1.273-.474-1.72-.277-.448-.853-.976-1.728-1.584l-.782-.544-6.652 9.57zm12.979-10.599l2.815 1.956c1.72 1.196 2.867 1.881 3.441 2.056.574.175 1.167.134 1.777-.121.611-.256 1.18-.765 1.71-1.526.507-.73.769-1.417.785-2.063a2.718 2.718 0 0 0-.553-1.741c-.275-.361-1.262-1.132-2.96-2.313l-2.972-2.065zm5.891 23.619l15.362-23.31 3.848 2.536-15.362 23.31zm25.3 3.49l3.024 3.726c-2.156 2.364-4.298 3.768-6.424 4.213-2.126.444-4.219.076-6.28-1.102-2.59-1.482-4.118-3.68-4.586-6.595-.535-3.362.317-6.999 2.555-10.91 2.363-4.133 5.144-6.835 8.343-8.106 2.78-1.101 5.536-.87 8.27.693 2.225 1.273 3.653 3.099 4.282 5.477.45 1.691.316 3.742-.404 6.153l-4.63-1.112c.497-1.457.568-2.75.213-3.882a4.374 4.374 0 0 0-2.069-2.577c-1.466-.838-3.027-.883-4.684-.134-1.656.749-3.326 2.595-5.01 5.537-1.745 3.053-2.535 5.482-2.369 7.288s.971 3.122 2.415 3.948c1.058.605 2.207.718 3.448.338 1.241-.38 2.543-1.365 3.906-2.955zm21.63 20.25l-4.709-1.762.35-6.64-8.561-3.203-3.988 5.279-4.602-1.722 18.13-23.024 4.584 1.715zm-4.102-13.327l.687-10.804-6.537 8.615zm-320.37-250.43l-3.876 1.752-3.752-4.192-7.048 3.185.757 5.547-3.789 1.712-2.856-24.632 3.773-1.706zm-10.412-5.55l-6.033-6.892 1.217 9.07zm12.357 4.955L301.914.455l5.555-1.833 8.383 14.203-1.742-16.393 5.57-1.837 7.4 22.433-3.444 1.136L317.812.505l2.167 18.866-3.58 1.18-9.452-16.462 5.825 17.658zm21.567-6.83l-5.652-22.936 13.955-3.439.956 3.88-10.17 2.506 1.253 5.085 9.45-2.329.952 3.865-9.45 2.328 1.539 6.243 10.513-2.591.952 3.864zm17.554-4.207l-4.196-23.247 8.103-1.462c2.072-.374 3.59-.432 4.553-.175.963.257 1.823.85 2.58 1.777.757.928 1.265 2.11 1.525 3.548.328 1.819.156 3.361-.516 4.629-.671 1.267-1.785 2.189-3.34 2.764.931.443 1.73.968 2.396 1.573.666.606 1.628 1.734 2.887 3.384l3.133 4.118-4.582.827-3.704-4.555c-1.335-1.647-2.223-2.669-2.665-3.064-.443-.395-.88-.643-1.314-.745-.433-.102-1.094-.073-1.981.088l-.793.143 1.751 9.704zm1.416-14.108l2.854-.515c1.744-.315 2.84-.592 3.288-.831.448-.24.778-.618.99-1.137.213-.518.249-1.163.11-1.935-.134-.74-.39-1.308-.766-1.704a2.3 2.3 0 0 0-1.373-.71c-.38-.051-1.432.079-3.155.39l-3.013.543zm17.71 10.869l-3.202-23.403 3.864-.53 3.202 23.405zm19.11-10.906l3.909 1.099c-.336 2.686-1.13 4.702-2.383 6.047s-2.878 2.114-4.878 2.305c-2.512.241-4.642-.531-6.389-2.317-2.01-2.063-3.198-4.992-3.562-8.788-.385-4.01.218-7.235 1.808-9.675 1.383-2.118 3.4-3.305 6.052-3.559 2.16-.207 4.038.358 5.634 1.694 1.138.948 2.046 2.431 2.725 4.449l-3.742 1.492c-.368-1.25-.95-2.178-1.748-2.787a3.702 3.702 0 0 0-2.688-.77c-1.422.136-2.523.868-3.302 2.194-.78 1.327-1.032 3.418-.758 6.273.284 2.962.924 5.026 1.92 6.193s2.196 1.684 3.597 1.55c1.027-.099 1.876-.582 2.548-1.45.672-.87 1.091-2.185 1.256-3.95zm25.38 7.385l-4.25.17-1.905-5.294-7.728.309-1.38 5.425-4.154.166 6.593-23.905 4.137-.165zm-7.57-9.05l-3.006-8.653-2.274 8.863zm29.878.829l3.735 1.594c-.68 2.621-1.727 4.518-3.142 5.69-1.416 1.172-3.127 1.724-5.135 1.656-2.523-.085-4.535-1.125-6.037-3.121-1.728-2.305-2.528-5.363-2.4-9.174.136-4.026 1.15-7.147 3.041-9.362 1.645-1.922 3.799-2.838 6.461-2.748 2.169.073 3.958.875 5.368 2.406 1.006 1.087 1.716 2.675 2.13 4.763l-3.904.997c-.204-1.286-.662-2.282-1.374-2.989a3.702 3.702 0 0 0-2.567-1.11c-1.427-.048-2.613.535-3.557 1.75-.944 1.215-1.464 3.256-1.56 6.122-.101 2.974.268 5.104 1.106 6.39.838 1.286 1.96 1.952 3.366 2 1.03.035 1.936-.335 2.714-1.11.779-.774 1.364-2.025 1.755-3.753zm6.837 9.04l2.042-23.533 14.32 1.242-.346 3.981-10.434-.905-.453 5.217 9.696.841-.344 3.965-9.696-.84-.556 6.404 10.788.936-.344 3.965zm18.007 1.647l3.343-23.384 3.764.538 5.616 16.738 2.232-15.617 3.605.515-3.342 23.385-3.893-.556-5.54-16.353-2.18 15.248zm23.541 3.759l3.863-19.242-5.64-1.132.787-3.918 15.087 3.029-.787 3.918-5.624-1.13-3.863 19.243zm11.97 2.468l6.036-22.838 7.96 2.104c2.036.538 3.436 1.128 4.2 1.769.764.64 1.292 1.541 1.586 2.702.293 1.16.253 2.447-.12 3.86-.473 1.786-1.281 3.111-2.426 3.975-1.145.864-2.544 1.228-4.197 1.091.657.796 1.158 1.609 1.505 2.44.348.83.742 2.26 1.184 4.287l1.097 5.057-4.502-1.19-1.429-5.694c-.513-2.058-.893-3.36-1.128-3.904-.226-.545-.522-.956-.87-1.231-.348-.276-.966-.53-1.834-.76l-.78-.206-2.519 9.534zm7.253-12.182l2.804.74c1.714.454 2.824.666 3.331.64.508-.028.967-.231 1.379-.611.411-.38.717-.95.917-1.708.193-.727.202-1.35.027-1.868a2.3 2.3 0 0 0-.943-1.224c-.323-.207-1.33-.535-3.023-.982l-2.96-.783zm28.111 22.96l-4.023-1.382.143-5.625-7.315-2.512-3.252 4.557-3.932-1.35 14.806-19.892 3.916 1.345zm-3.776-11.18l.333-9.153-5.332 7.437zm5.769 12.051l9.405-21.458 3.572 1.565-7.808 17.813 8.914 3.907-1.598 3.645z"/></g></svg>